<svg xmlns="http://www.w3.org/2000/svg" viewBox="0 0 64 64" fill="none">
  <defs>
    <linearGradient id="hb-orange-primary" x1="0%" y1="0%" x2="100%" y2="100%">
      <stop offset="0%" stop-color="#FF9D33" />
      <stop offset="100%" stop-color="#FF7A00" />
    </linearGradient>
    <linearGradient id="hb-orange-accent" x1="0%" y1="0%" x2="100%" y2="100%">
      <stop offset="0%" stop-color="#FF7A00" />
      <stop offset="100%" stop-color="#C65F00" />
    </linearGradient>
  </defs>
  <rect width="64" height="64" rx="14" fill="#080808" stroke="#262626" stroke-width="2" />
  <g transform="translate(1, -2)">
    <!-- H Left Stem -->
    <rect x="12" y="14" width="6" height="40" fill="url(#hb-orange-primary)" rx="0.5" />
    <path d="M 8 14 L 22 14 L 22 16 L 8 16 Z" fill="url(#hb-orange-primary)" />
    <path d="M 8 52 L 22 52 L 22 54 L 8 54 Z" fill="url(#hb-orange-primary)" />

    <!-- H Crossbar -->
    <rect x="16" y="32" width="14" height="4" fill="url(#hb-orange-primary)" />

    <!-- H Right Stem / B Spine in Orange Accent -->
    <rect x="27" y="14" width="6" height="40" fill="url(#hb-orange-accent)" rx="0.5" />
    <path d="M 24 14 L 35 14 L 35 16 L 24 16 Z" fill="url(#hb-orange-accent)" />
    <path d="M 24 52 L 35 52 L 35 54 L 24 54 Z" fill="url(#hb-orange-accent)" />

    <!-- B Upper Bowl -->
    <path
      d="M 32 16 C 42 16 48 19 48 25 C 48 30 42 33 33 33 L 33 29 C 39 29 43 27 43 25 C 43 21 39 19 33 19 Z"
      fill="url(#hb-orange-primary)"
    />

    <!-- B Lower Bowl -->
    <path
      d="M 32 32 C 44 32 51 36 51 43 C 51 51 43 54 32 54 L 32 50 C 40 50 46 48 46 43 C 46 38 40 36 32 36 Z"
      fill="url(#hb-orange-primary)"
    />
  </g>
</svg>
